<svg width="362" height="382" viewBox="0 0 362 382" fill="none" xmlns="http://www.w3.org/2000/svg">
<rect x="9" width="344" height="324" rx="12" fill="white"/>
<path d="M361 381H2.03597H1V162.942L9.28777 157V162.942H13.6906C14.554 162.942 16.9022 163.459 19.3885 165.526C21.8748 167.593 84.6547 217.371 115.734 242.001H247.302C277.777 217.629 339.452 168.265 342.353 165.784C345.253 163.304 348.396 162.339 349.604 162.167H353.23V157.258L361 162.167V381Z" fill="#EDF5FC"/>
<path d="M361 381H2.03597H1M361 381V162.167M361 381C333.115 337.078 276.879 248.512 275.014 245.618C273.15 242.725 270.439 242.001 269.317 242.001H247.302M361 162.167L353.23 157.258V162.167M361 162.167H353.23M247.302 242.001C277.777 217.629 339.452 168.265 342.353 165.784C345.253 163.304 348.396 162.339 349.604 162.167H353.23M247.302 242.001H115.734M1 162.942L9.28777 157V162.942M1 162.942V381M1 162.942H9.28777M115.734 242.001C84.6547 217.371 21.8748 167.593 19.3885 165.526C16.9022 163.459 14.554 162.942 13.6906 162.942H9.28777M115.734 242.001H92.1655C91.0432 242.001 88.3842 242.518 86.7266 244.585C85.0691 246.652 28.8849 336.389 1 381" stroke="#D0D0D0" stroke-width="0.5"/>
<path d="M361 162V381C333.115 337.045 276.879 248.411 275.014 245.515C273.15 242.619 270.439 241.895 269.317 241.895H247.302C277.777 217.504 339.452 168.102 342.353 165.62C345.253 163.138 348.396 162.172 349.604 162H353.23H361Z" fill="#E5F2FD"/>
<path d="M19.3885 165.361C16.9022 163.293 14.554 162.776 13.6906 162.776H9.28777H1V381C28.8849 336.355 85.0691 246.549 86.7266 244.481C88.3842 242.412 91.0432 241.895 92.1655 241.895H115.734C84.6547 217.246 21.8748 167.43 19.3885 165.361Z" fill="#E5F2FD"/>
<path d="M361 162V381C333.115 337.045 276.879 248.411 275.014 245.515C273.15 242.619 270.439 241.895 269.317 241.895H247.302C277.777 217.504 339.452 168.102 342.353 165.62C345.253 163.138 348.396 162.172 349.604 162H353.23H361Z" stroke="#D0D0D0" stroke-width="0.5"/>
<path d="M19.3885 165.361C16.9022 163.293 14.554 162.776 13.6906 162.776H9.28777H1V381C28.8849 336.355 85.0691 246.549 86.7266 244.481C88.3842 242.412 91.0432 241.895 92.1655 241.895H115.734C84.6547 217.246 21.8748 167.43 19.3885 165.361Z" stroke="#D0D0D0" stroke-width="0.5"/>
</svg>
