<svg width="620" height="621" viewBox="0 0 620 621" fill="none" xmlns="http://www.w3.org/2000/svg">
<rect x="16" width="589" height="522" rx="12" fill="white"/>
<path d="M619 619H2.77842H1V246.16L15.2273 236V246.16H22.7856C24.2676 246.16 28.2987 247.044 32.5669 250.578C36.8351 254.112 144.607 339.223 197.96 381.337H423.819C476.134 339.665 582.009 255.26 586.989 251.02C591.968 246.779 597.363 245.13 599.437 244.835H605.662V236.442L619 244.835V619Z" fill="#EDF5FC"/>
<path d="M619 619H2.77842H1M619 619V244.835M619 619C571.131 543.902 474.593 392.469 471.391 387.521C468.19 382.574 463.537 381.337 461.61 381.337H423.819M619 244.835L605.662 236.442V244.835M619 244.835H605.662M423.819 381.337C476.134 339.665 582.009 255.26 586.989 251.02C591.968 246.779 597.363 245.13 599.437 244.835H605.662M423.819 381.337H197.96M1 246.16L15.2273 236V246.16M1 246.16V619M1 246.16H15.2273M197.96 381.337C144.607 339.223 36.8351 254.112 32.5669 250.578C28.2987 247.044 24.2676 246.16 22.7856 246.16H15.2273M197.96 381.337H157.501C155.574 381.337 151.01 382.22 148.164 385.754C145.319 389.288 48.8691 542.724 1 619" stroke="#D0D0D0"/>
<path d="M619 245V619C571.131 543.935 474.592 392.569 471.391 387.623C468.19 382.678 463.537 381.442 461.61 381.442H423.819C476.134 339.788 582.009 255.421 586.989 251.182C591.968 246.943 597.363 245.294 599.437 245H605.662H619Z" fill="#E5F2FD"/>
<path d="M32.5669 250.74C28.2987 247.208 24.2676 246.325 22.7856 246.325H15.2273H1V619C48.8691 542.758 145.319 389.39 148.164 385.857C151.01 382.325 155.574 381.442 157.501 381.442H197.96C144.607 339.346 36.8351 254.273 32.5669 250.74Z" fill="#E5F2FD"/>
<path d="M619 245V619C571.131 543.935 474.592 392.569 471.391 387.623C468.19 382.678 463.537 381.442 461.61 381.442H423.819C476.134 339.788 582.009 255.421 586.989 251.182C591.968 246.943 597.363 245.294 599.437 245H605.662H619Z" stroke="#D0D0D0"/>
<path d="M32.5669 250.74C28.2987 247.208 24.2676 246.325 22.7856 246.325H15.2273H1V619C48.8691 542.758 145.319 389.39 148.164 385.857C151.01 382.325 155.574 381.442 157.501 381.442H197.96C144.607 339.346 36.8351 254.273 32.5669 250.74Z" stroke="#D0D0D0"/>
</svg>
