<svg width="283" height="593" viewBox="0 0 283 593" fill="none" xmlns="http://www.w3.org/2000/svg">
<path d="M102.814 550.373C117.429 535.699 133.262 533.698 139.352 534.532C144.057 539.812 148.32 555.542 127.725 576.219C101.982 602.065 94.51 591.226 91.1884 587.891C87.8668 584.556 84.5451 568.715 102.814 550.373Z" fill="white"/>
<path d="M98.6611 472.836C70.0951 501.516 77.9009 511.466 85.3746 512.855C95.6161 515.912 120.085 518.024 136.029 502.017C151.973 486.009 152.083 475.893 150.146 472.836C144.887 460.886 127.227 444.156 98.6611 472.836Z" fill="white"/>
<path d="M10.6375 547.872C29.9029 528.529 43.5769 530.919 48.0058 534.532C57.1414 543.704 48.0058 560.377 38.8702 569.549C31.5617 576.887 17.0032 580.388 10.6375 581.221C2.61018 578.164 -8.628 567.215 10.6375 547.872Z" fill="white"/>
<path fill-rule="evenodd" clip-rule="evenodd" d="M117 41C124.833 27.3333 151.7 0 196.5 0C207.333 0.5 228 3.5 236 12C245.2 9.2 270 8.33333 283 8V21.5C271.4 21.5 252.5 24.1667 244.5 25.5C244.167 35.1667 240.8 55.9 230 61.5C219.2 67.1 210.167 63.8333 207 61.5C186.731 41.231 202.528 25.8935 219.5 17.572C167.1 7.59141 136.333 36.0321 127.5 51.5L117 41ZM229.5 30.0479C217.022 34.7815 206.018 41.866 214.5 49.5001C226.5 60.3001 229.5 41.0319 229.5 30.0479Z" fill="#FBC9D7"/>
</svg>
