<svg width="383" height="563" viewBox="0 0 383 563" fill="none" xmlns="http://www.w3.org/2000/svg">
<path d="M54.6825 489L51.8389 500.184L41.4123 497.099L48.237 508.09L38 514.26L48.237 516.96L44.6351 527.758L54.1137 521.78L59.9905 532L63.5924 521.202L75.9147 523.901L69.2796 513.489L78 508.09L67.9526 505.39L70.4171 494.592L60.5592 499.413L54.6825 489Z" fill="#FFEBA9"/>
<path d="M356.269 246.697C354.928 236.03 348.203 239.084 345.008 241.945C345.131 240.891 344.524 238.338 341.107 236.557C336.836 234.33 332.202 238.624 330.106 242.644C328.011 246.664 327.86 251.857 332.005 254.017C335.321 255.746 338.083 254.31 339.049 253.376C338.343 255.138 337.912 259.173 341.831 261.216C345.751 263.259 348.986 260.26 350.114 258.505C349.306 260.054 348.797 263.729 353.218 266.034C357.64 268.339 360.874 265.445 361.938 263.71C361.926 265.674 362.656 269.995 365.67 271.566C369.439 273.531 372.3 272.945 375.094 268.811C377.33 265.503 378.863 261.989 379.351 260.646C379.989 259.115 380.085 255.437 375.362 252.975C370.638 250.513 367.762 252.741 366.915 254.163C367.5 243.478 360.062 244.733 356.269 246.697Z" fill="#BFE2F9"/>
<path d="M314.057 542.292C320.737 538.006 326.842 538.553 329.06 539.363C330.396 541.72 330.715 547.945 321.302 553.985C309.536 561.535 307.615 556.875 306.639 555.357C305.664 553.84 305.708 547.65 314.057 542.292Z" fill="white"/>
<path d="M318.812 512.986C305.756 521.364 307.875 525.719 310.567 526.85C314.162 528.829 323.173 531.62 330.46 526.944C337.747 522.268 338.612 518.498 338.134 517.197C337.133 512.303 331.868 504.608 318.812 512.986Z" fill="white"/>
<path d="M279.667 533.818C288.473 528.168 293.41 530.179 294.778 531.891C297.46 536.065 292.673 541.546 288.498 544.226C285.158 546.369 279.409 546.486 276.952 546.277C274.188 544.478 270.862 539.469 279.667 533.818Z" fill="white"/>
<path d="M11.9854 352.574L20.1374 366.694L7.05672 365.27L5.87706 369.673L20.6064 371.677L15.1598 384.235L20.0803 385.553L24.3083 373.918L32.9343 388.858L36.7105 386.678L28.0845 371.738L42.6496 373.836L43.8293 369.433L28.1588 367.316L32.253 352.037L27.8504 350.857L24.242 364.324L16.09 350.204L11.9854 352.574Z" fill="white"/>
<path d="M315.985 9.57389L324.137 23.6937L311.057 22.2705L309.877 26.673L324.606 28.6768L319.16 41.2345L324.08 42.553L328.308 30.9177L336.934 45.8584L340.71 43.6782L332.084 28.7375L346.65 30.8361L347.829 26.4335L332.159 24.3164L336.253 9.03686L331.85 7.85719L328.242 21.3239L320.09 7.20411L315.985 9.57389Z" fill="white"/>
<path d="M25.5498 100.454C25.6154 94.5699 29.4383 80.6956 44.2058 72.2694C47.8689 70.3932 55.831 67.2191 58.3744 69.5324C60.8914 66.8984 69.9684 61.1345 74.1922 58.5818L76.6782 62.9386C72.8544 65.1204 67.1154 69.5358 64.7239 71.4708C66.394 74.6531 69.1021 81.9775 66.5733 85.816C64.0445 89.6546 60.4652 90.2994 58.9917 90.142C48.578 87.413 50.9611 79.492 55.0231 73.6143C35.9125 80.249 31.0079 95.2143 30.9445 101.868L25.5498 100.454Z" fill="#FFDEE7"/>
</svg>
