<svg width="355" height="643" viewBox="0 0 355 643" fill="none" xmlns="http://www.w3.org/2000/svg">
<path d="M19.5498 104.454C19.6154 98.5699 23.4383 84.6956 38.2058 76.2694C41.8689 74.3932 49.831 71.2191 52.3744 73.5324C54.8914 70.8984 63.9684 65.1345 68.1922 62.5818L70.6782 66.9386C66.8544 69.1204 61.1154 73.5358 58.7239 75.4708C60.394 78.6531 63.1021 85.9775 60.5733 89.816C58.0445 93.6546 54.4652 94.2994 52.9917 94.142C42.578 91.413 44.9611 83.492 49.0231 77.6143C29.9125 84.249 25.0079 99.2143 24.9445 105.868L19.5498 104.454Z" fill="#FFDEE7"/>
<path d="M252.186 622.712C258.866 618.426 264.971 618.973 267.189 619.783C268.525 622.14 268.844 628.365 259.431 634.405C247.665 641.955 245.743 637.295 244.768 635.777C243.793 634.26 243.837 628.07 252.186 622.712Z" fill="white"/>
<path d="M256.941 593.406C243.885 601.784 246.004 606.139 248.696 607.27C252.291 609.249 261.302 612.04 268.589 607.364C275.876 602.688 276.741 598.918 276.263 597.617C275.262 592.723 269.997 585.028 256.941 593.406Z" fill="white"/>
<path d="M217.796 614.238C226.602 608.588 231.539 610.599 232.907 612.311C235.588 616.485 230.802 621.966 226.627 624.646C223.287 626.789 217.538 626.906 215.081 626.697C212.317 624.898 208.991 619.888 217.796 614.238Z" fill="white"/>
<path d="M39.4915 412.701C45.1053 407.091 51.1869 406.326 53.5259 406.644C55.3333 408.663 56.9705 414.678 49.0601 422.584C39.172 432.466 36.3019 428.322 35.026 427.047C33.7501 425.771 32.4743 419.714 39.4915 412.701Z" fill="white"/>
<path d="M37.8963 383.055C26.9239 394.021 29.9222 397.825 32.7929 398.356C36.7267 399.525 46.1254 400.333 52.2495 394.212C58.3736 388.092 58.4162 384.224 57.6719 383.055C55.6519 378.486 48.8687 372.089 37.8963 383.055Z" fill="white"/>
<path d="M4.08591 411.745C11.4859 404.349 16.7382 405.263 18.4393 406.644C21.9483 410.151 18.4393 416.526 14.9303 420.033C12.123 422.839 6.53102 424.178 4.08591 424.496C1.00259 423.327 -3.31407 419.141 4.08591 411.745Z" fill="white"/>
<path d="M288.985 9.57438L297.137 23.6941L284.057 22.2709L282.877 26.6735L297.606 28.6772L292.16 41.235L297.08 42.5535L301.308 30.9182L309.934 45.8589L313.71 43.6787L305.084 28.738L319.65 30.8365L320.829 26.434L305.159 24.3168L309.253 9.03734L304.85 7.85768L301.242 21.3244L293.09 7.20459L288.985 9.57438Z" fill="white"/>
<path d="M325.894 189.641C324.422 177.935 317.042 181.287 313.536 184.427C313.671 183.27 313.005 180.468 309.255 178.514C304.568 176.071 299.483 180.782 297.183 185.194C294.884 189.605 294.718 195.303 299.267 197.675C302.906 199.572 305.937 197.996 306.997 196.971C306.222 198.904 305.749 203.332 310.05 205.574C314.351 207.816 317.901 204.525 319.139 202.599C318.253 204.299 317.693 208.332 322.546 210.861C327.398 213.39 330.947 210.215 332.114 208.311C332.101 210.466 332.902 215.208 336.21 216.932C340.346 219.088 343.485 218.445 346.552 213.908C349.005 210.278 350.688 206.422 351.222 204.948C351.923 203.268 352.028 199.232 346.845 196.531C341.662 193.829 338.506 196.274 337.575 197.834C338.218 186.108 330.055 187.487 325.894 189.641Z" fill="#BFE2F9"/>
<path d="M302.82 368.467L309.616 380.238L298.711 379.052L297.728 382.722L310.007 384.393L305.466 394.862L309.569 395.961L313.093 386.261L320.285 398.716L323.433 396.899L316.241 384.443L328.384 386.193L329.367 382.522L316.303 380.757L319.717 368.019L316.046 367.036L313.038 378.263L306.242 366.491L302.82 368.467Z" fill="white"/>
<path d="M50.9919 530.982L57.788 542.753L46.883 541.566L45.8995 545.237L58.179 546.907L53.6383 557.376L57.7404 558.475L61.2651 548.775L68.4564 561.231L71.6045 559.414L64.4133 546.958L76.5558 548.707L77.5393 545.037L64.4753 543.272L67.8884 530.534L64.2181 529.551L61.2099 540.777L54.4138 529.006L50.9919 530.982Z" fill="white"/>
<path d="M248.308 413.744L245.187 425.811L233.745 422.482L241.234 434.34L230 440.998L241.234 443.91L237.281 455.56L247.684 449.111L254.133 460.137L258.086 448.487L271.608 451.4L264.327 440.165L273.897 434.34L262.871 431.428L265.575 419.777L254.757 424.978L248.308 413.744Z" fill="#FFEBA9"/>
</svg>
