<svg width="381" height="589" viewBox="0 0 381 589" fill="none" xmlns="http://www.w3.org/2000/svg">
<path d="M48.6825 515L45.8389 526.184L35.4123 523.099L42.237 534.09L32 540.26L42.237 542.96L38.6351 553.758L48.1137 547.78L53.9905 558L57.5924 547.202L69.9147 549.901L63.2796 539.489L72 534.09L61.9526 531.39L64.4171 520.592L54.5592 525.413L48.6825 515Z" fill="#FFEBA9"/>
<path d="M347.305 280.169C337.262 276.333 336.793 283.705 337.813 287.87C336.941 287.265 334.403 286.6 331.223 288.777C327.249 291.498 328.857 297.607 331.418 301.348C333.979 305.088 338.491 307.665 342.348 305.024C345.434 302.911 345.466 299.798 345.096 298.506C346.319 299.958 349.677 302.237 353.324 299.74C356.97 297.243 355.846 292.977 354.828 291.156C355.815 292.598 358.818 294.777 362.932 291.959C367.047 289.142 366.015 284.927 364.985 283.172C366.712 284.107 370.868 285.496 373.673 283.575C377.18 281.174 378.009 278.374 375.676 273.963C373.809 270.434 371.43 267.428 370.474 266.365C369.423 265.082 366.223 263.267 361.828 266.276C357.434 269.285 358.046 272.872 358.902 274.289C349.749 268.744 347.357 275.899 347.305 280.169Z" fill="#BFE2F9"/>
<path d="M308.057 568.292C314.737 564.006 320.842 564.553 323.06 565.363C324.396 567.72 324.715 573.945 315.302 579.985C303.536 587.535 301.615 582.875 300.639 581.357C299.664 579.84 299.708 573.65 308.057 568.292Z" fill="white"/>
<path d="M312.812 538.986C299.756 547.364 301.875 551.719 304.567 552.85C308.162 554.829 317.173 557.62 324.46 552.944C331.747 548.268 332.612 544.498 332.134 543.197C331.133 538.303 325.868 530.608 312.812 538.986Z" fill="white"/>
<path d="M273.667 559.818C282.473 554.168 287.41 556.179 288.778 557.891C291.46 562.065 286.673 567.546 282.498 570.226C279.158 572.369 273.409 572.486 270.952 572.277C268.188 570.478 264.862 565.469 273.667 559.818Z" fill="white"/>
<path d="M11.9854 266.574L20.1374 280.694L7.05672 279.27L5.87706 283.673L20.6064 285.677L15.1598 298.235L20.0803 299.553L24.3083 287.918L32.9343 302.858L36.7105 300.678L28.0845 285.738L42.6496 287.836L43.8293 283.433L28.1588 281.316L32.253 266.037L27.8504 264.857L24.242 278.324L16.09 264.204L11.9854 266.574Z" fill="white"/>
<path d="M309.985 35.5739L318.137 49.6937L305.057 48.2705L303.877 52.673L318.606 54.6768L313.16 67.2345L318.08 68.553L322.308 56.9177L330.934 71.8584L334.71 69.6782L326.084 54.7375L340.65 56.8361L341.829 52.4335L326.159 50.3164L330.253 35.0369L325.85 33.8572L322.242 47.3239L314.09 33.2041L309.985 35.5739Z" fill="white"/>
<path d="M11.5498 44.4538C11.6154 38.5699 15.4383 24.6956 30.2058 16.2694C33.8689 14.3932 41.831 11.2191 44.3744 13.5324C46.8914 10.8984 55.9684 5.13451 60.1922 2.58183L62.6782 6.93859C58.8544 9.12038 53.1154 13.5358 50.7239 15.4708C52.394 18.6531 55.1021 25.9775 52.5733 29.816C50.0445 33.6546 46.4652 34.2994 44.9917 34.142C34.578 31.413 36.9611 23.492 41.0231 17.6143C21.9125 24.249 17.0079 39.2143 16.9445 45.8675L11.5498 44.4538Z" fill="#FFDEE7"/>
</svg>
